<svg id="extT89SDcCb1" xmlns="http://www.w3.org/2000/svg" xmlns:xlink="http://www.w3.org/1999/xlink" viewBox="0 0 300 300" shape-rendering="geometricPrecision" text-rendering="geometricPrecision" project-id="5cbcc6d913a04b86a00a736c9bc7374d" export-id="d13c8fc1ede94085b0abf37adfcd72ad" cached="false"><defs><linearGradient id="extT89SDcCb3-fill" x1="280.369774" y1="9.055562" x2="82.153601" y2="414.142895" spreadMethod="pad" gradientUnits="userSpaceOnUse" gradientTransform="translate(0 0)"><stop id="extT89SDcCb3-fill-0" offset="1%" stop-color="#9fa3ad"/><stop id="extT89SDcCb3-fill-1" offset="52%" stop-color="#70747a"/><stop id="extT89SDcCb3-fill-2" offset="84%" stop-color="#4c4f54"/></linearGradient><linearGradient id="extT89SDcCb4-fill" x1="153.62" y1="334.21" x2="97.62" y2="192.54" spreadMethod="pad" gradientUnits="userSpaceOnUse" gradientTransform="translate(0 0)"><stop id="extT89SDcCb4-fill-0" offset="17%" stop-color="#faa096"/><stop id="extT89SDcCb4-fill-1" offset="56%" stop-color="#ffaca3"/><stop id="extT89SDcCb4-fill-2" offset="100%" stop-color="#ffbfa8"/></linearGradient><linearGradient id="extT89SDcCb5-fill" x1="290.283411" y1="37.566108" x2="140.730327" y2="350.856838" spreadMethod="pad" gradientUnits="userSpaceOnUse" gradientTransform="translate(0 0)"><stop id="extT89SDcCb5-fill-0" offset="17%" stop-color="#ffe6d3"/><stop id="extT89SDcCb5-fill-1" offset="59%" stop-color="#ffe6d3"/><stop id="extT89SDcCb5-fill-2" offset="100%" stop-color="#f2dacb"/></linearGradient><linearGradient id="extT89SDcCb15-fill" x1="-4.450003" y1="-16.769998" x2="-12.280003" y2="-33.769998" spreadMethod="pad" gradientUnits="userSpaceOnUse" gradientTransform="translate(0 0)"><stop id="extT89SDcCb15-fill-0" offset="52%" stop-color="#70747a"/><stop id="extT89SDcCb15-fill-1" offset="84%" stop-color="#4c4f54"/></linearGradient><linearGradient id="extT89SDcCb16-fill" x1="-6.950002" y1="-22.2" x2="-14.780002" y2="-39.2" spreadMethod="pad" gradientUnits="userSpaceOnUse" gradientTransform="translate(0 0)"><stop id="extT89SDcCb16-fill-0" offset="52%" stop-color="#70747a"/><stop id="extT89SDcCb16-fill-1" offset="84%" stop-color="#4c4f54"/></linearGradient><linearGradient id="extT89SDcCb17-fill" x1="-9.370002" y1="-27.430001" x2="-17.200002" y2="-44.430001" spreadMethod="pad" gradientUnits="userSpaceOnUse" gradientTransform="translate(0 0)"><stop id="extT89SDcCb17-fill-0" offset="52%" stop-color="#70747a"/><stop id="extT89SDcCb17-fill-1" offset="84%" stop-color="#4c4f54"/></linearGradient><linearGradient id="extT89SDcCb18-fill" x1="-11.82" y1="-32.760003" x2="-19.65" y2="-49.760003" spreadMethod="pad" gradientUnits="userSpaceOnUse" gradientTransform="translate(0 0)"><stop id="extT89SDcCb18-fill-0" offset="52%" stop-color="#70747a"/><stop id="extT89SDcCb18-fill-1" offset="84%" stop-color="#4c4f54"/></linearGradient></defs><g transform="matrix(.584157 0 0 0.604002 30.249584 28.055311)"><path d="M173.65,208.8c-11.54,9.89-25.16-2.95-20.32-15.89c4.2-11.25,11.13-19,6.39-23.28s-26,3.71-34,22.87-8.86,31.5-39.56,44.92-85.3,34.58-28.23,99.93s89.63,18.75,96.43-4.95s11.74-35.23,33.17-44.3s29.33-29,19.57-34.82c-6.18-3.71-17.51,13.81-30.49,2.06-2.88-3.3-4.17-9.3,6.41-20.59c10.84-11.57,132.63-138.29,136.13-142.2s13.64,2.49,17.55-.6s16.48-27.2,25.34-36.47c3.3-3.71,11.33-4.74,14.22-7.62s-2.26-16.28-24.92-3.92-44.34,24.93-48.83,28.23s2.58,11-2.48,15.81Z" fill="url(#extT89SDcCb3-fill)"/><path d="M85.54,258.91c-20.87,10.43-26.48,21.23-17.17,31.73c8.54,9.64,20.47,8.38,29.95,18.27s10.06,29.91,21.72,39.24c13.19,10.57,25.23-11.36,28.63-30.83c2.59-14.85,8-22.8,25.33-31s24.18-11.71,23-17.71c-2.06-10.1-32,9.33-39.71-16-5.36-17.54-6.59-31.32-15.25-38s-10.89,14.39-23.26,26.72c-8.65,8.67-23.9,12.91-33.24,17.58Z" fill="url(#extT89SDcCb4-fill)"/><path d="M174.54,208l-33.22,32.23c-.28278.278214-.442033.658304-.442033,1.055s.159253.776786.442033,1.055l16.41,16.41c.278214.28278.658304.442033,1.055.442033s.776786-.159253,1.055-.442033L192,225.45l121.52-127-12.21-12.22Z" fill="url(#extT89SDcCb5-fill)"/><rect width="37.74" height="8.74" rx="1.7" ry="1.7" transform="matrix(.707107 0.707107-.707107 0.707107 133.014474 240.323693)" fill="#fff"/><rect width="37.74" height="8.74" rx="1.7" ry="1.7" transform="matrix(.707107 0.707107-.707107 0.707107 113.448315 259.893693)" fill="#fff"/><rect width="37.74" height="8.74" rx="1.7" ry="1.7" transform="matrix(.707107 0.707107-.707107 0.707107 95.442471 277.883693)" fill="#fff"/><circle r="8.16" transform="matrix(.707107-.707107 0.707107 0.707107 128.190852 315.452816)" fill="#fff"/><circle r="5.83" transform="matrix(.707107-.707107 0.707107 0.707107 127.785658 337.077449)" fill="#fff"/><polyline points="97.66,286.28 319.84,72.09 312.94,55.92" fill="none" stroke="#81858c" stroke-width="2" stroke-linecap="round" stroke-miterlimit="10"/><polyline points="103.02,291.64 330.81,66.47 323.93,49.6" fill="none" stroke="#81858c" stroke-width="2" stroke-linecap="round" stroke-miterlimit="10"/><polyline points="108.38,297 341.97,60.19 334.32,42.89" fill="none" stroke="#81858c" stroke-width="2" stroke-linecap="round" stroke-miterlimit="10"/><polyline points="113.73,302.36 353.13,53.91 347.25,39.13" fill="none" stroke="#81858c" stroke-width="2" stroke-linecap="round" stroke-miterlimit="10"/><rect width="9.92" height="7.31" rx="3.65" ry="3.65" transform="matrix(.869926-.493183 0.493183 0.869926 306.558568 55.195029)" fill="url(#extT89SDcCb15-fill)"/><rect width="9.92" height="7.31" rx="3.65" ry="3.65" transform="matrix(.869926-.493183 0.493183 0.869926 318.186297 49.261954)" fill="url(#extT89SDcCb16-fill)"/><rect width="9.92" height="7.31" rx="3.65" ry="3.65" transform="matrix(.869926-.493183 0.493183 0.869926 329.267773 43.7268)" fill="url(#extT89SDcCb17-fill)"/><rect width="9.92" height="7.31" rx="3.65" ry="3.65" transform="matrix(.869926-.493183 0.493183 0.869926 340.647067 37.92881)" fill="url(#extT89SDcCb18-fill)"/><circle r="2.59" transform="matrix(.707107-.707107 0.707107 0.707107 319.86929 72.054797)" fill="#fff"/><circle r="2.59" transform="matrix(.707107-.707107 0.707107 0.707107 330.031773 66.314729)" fill="#fff"/><circle r="2.59" transform="matrix(.707107-.707107 0.707107 0.707107 341.515002 60.352786)" fill="#fff"/><circle r="2.59" transform="matrix(.707107-.707107 0.707107 0.707107 352.696896 54.073773)" fill="#fff"/></g><g transform="matrix(-.579918 0 0 0.481777 300.406286 53.547098)"><path d="M234.78,128.88c.23-56.45,31.16-91.4,66.91-110.72-5.41,56.22-29.94,90.23-66.91,110.72Z" fill="#258f7d"/><path d="M212.1,173c7.1-22.93,12.53-71.36-1.35-104.7-12.39,26.38-20.23,71.51,1.35,104.7Z" fill="#258f7d"/><path d="M213.47,173.11c19.3-28.75,64.17-56,90.25-58-10.3,36.5-81.5,56.68-90.25,58Z" fill="#258f7d"/><path d="M190.93,217.39c2.42-13.61-2.76-74.28-22-105.47-8.85,45.99,2.64,85.61,22,105.47Z" fill="#258f7d"/><path d="M194.16,215.83c11.12-15,57.88-46.73,87.17-50.72-11.6,47.11-87.17,50.72-87.17,50.72Z" fill="#258f7d"/><path d="M169.81,273.07c.71-2.15,4-10.83,4.12-12.55c1.37-24.6-18.4-75.38-36.37-96.46-4.32,73.26,27.83,101.84,32.25,109.01Z" fill="#258f7d"/><path d="M170.35,274.78c12.29-22.51,58.57-58.75,92.45-57.24-17.8,41.12-92.45,57.24-92.45,57.24Z" fill="#258f7d"/><path d="M152.46,324.69c3.08-15.31-14.25-84.77-45.55-108.06-1.09,57.2,40,117.18,42.16,119.31.53-1.26,3.39-11.25,3.39-11.25Z" fill="#258f7d"/><path d="M149.06,335.93c1.31-2.75,3.49-13.37,5.39-16.19c18.68-27.78,72.35-48.88,99.92-45.28-31.21,45.9-105.31,61.47-105.31,61.47Z" fill="#258f7d"/><path d="M268.67,71.41c-34.4,54-111.79,196.77-129.4,315.84" fill="none" stroke="#1e7365" stroke-width="5" stroke-linecap="round" stroke-miterlimit="10"/></g></svg>
